<mxfile host="app.diagrams.net" modified="2024-02-28T23:58:13.496Z" agent="Mozilla/5.0 (X11; Linux x86_64; rv:122.0) Gecko/20100101 Firefox/122.0" version="23.1.8" etag="lhvRm9aNijdqDkNUnzi4" type="github">
  <diagram name="Page-1" id="WEH9xrTXncNTX4dx-r0v">
    <mxGraphModel>
      <root>
        <mxCell id="0" />
        <mxCell id="1" parent="0" />
      </root>
    </mxGraphModel>
  </diagram>
</mxfile>
